<svg height='100px' width='100px'  fill="#000000" xmlns="http://www.w3.org/2000/svg" xmlns:xlink="http://www.w3.org/1999/xlink" version="1.1" x="0px" y="0px" viewBox="0 0 95 95" enable-background="new 0 0 95 95" xml:space="preserve"><path d="M31.867,59.911c0.127,4.288,1.437,7.677,3.933,10.172c2.494,2.497,5.637,4.062,9.427,4.702V49.489  c-3.35-0.819-6.237-1.705-8.669-2.652s-4.452-2.116-6.063-3.505c-1.611-1.39-2.796-3.063-3.553-5.022  c-0.759-1.956-1.138-4.326-1.138-7.104c0-2.843,0.505-5.448,1.516-7.816c1.01-2.369,2.384-4.42,4.12-6.158  c1.737-1.737,3.79-3.111,6.159-4.123c2.368-1.009,4.91-1.61,7.627-1.799V5.057h5.21v6.347c5.116,0.632,9.189,2.543,12.221,5.731  c3.033,3.19,5.179,7.532,6.443,13.028h-8.053c-1.265-6.36-4.8-10.087-10.611-11.181v23.497l5.685,1.515  c1.198,0.317,2.668,0.869,4.405,1.658c1.737,0.791,3.395,1.879,4.974,3.269c1.578,1.391,2.921,3.126,4.027,5.21  c1.104,2.084,1.657,4.581,1.657,7.485c0,3.031-0.521,5.764-1.563,8.195c-1.042,2.433-2.48,4.531-4.312,6.3  c-1.832,1.769-4.012,3.159-6.537,4.168c-2.525,1.01-5.305,1.642-8.337,1.895v7.769h-5.21v-7.769  c-6.253-0.632-11.26-2.856-15.018-6.679c-3.757-3.821-5.889-9.015-6.394-15.585H31.867z M45.227,18.7  c-3.033,0.32-5.607,1.417-7.721,3.297c-2.117,1.879-3.174,4.635-3.174,8.264c0,1.72,0.267,3.155,0.804,4.3  c0.537,1.147,1.294,2.118,2.274,2.914c0.979,0.797,2.132,1.481,3.458,2.053c1.325,0.576,2.779,1.085,4.358,1.53V18.7z   M50.437,74.785c1.768-0.128,3.395-0.46,4.88-1.002c1.483-0.542,2.779-1.29,3.884-2.244s1.957-2.18,2.559-3.677  c0.599-1.495,0.898-3.262,0.898-5.298c0-1.784-0.315-3.313-0.945-4.586c-0.634-1.272-1.485-2.355-2.56-3.246  c-1.074-0.892-2.367-1.639-3.884-2.244c-1.517-0.604-3.126-1.163-4.832-1.672V74.785z"></path></svg>