<svg height='100px' width='100px'  fill="#000000" xmlns="http://www.w3.org/2000/svg" xmlns:xlink="http://www.w3.org/1999/xlink" version="1.1" x="0px" y="0px" viewBox="0 0 64 64" style="enable-background:new 0 0 64 64;" xml:space="preserve"><g><path d="M63.4,24.4l-31-11.1c-0.2-0.1-0.4-0.1-0.7,0l-31,11.1C0.3,24.6,0,24.9,0,25.3c0,0.4,0.3,0.8,0.6,0.9l31,11.1   c0.1,0,0.2,0.1,0.3,0.1c0.1,0,0.2,0,0.3-0.1l23.1-8.2v8.6h-0.3c-1.1,0-1.9,0.9-1.9,1.9v5.7c0,0.5,0.4,1,1,1h4.4c0.5,0,1-0.4,1-1   v-5.7c0-1.1-0.9-1.9-1.9-1.9h-0.3v-9.3l6-2.1c0.4-0.1,0.6-0.5,0.6-0.9C64,24.9,63.7,24.6,63.4,24.4z"></path><path d="M32,39.3c-0.3,0-0.7-0.1-1-0.2l-17.7-6.3v14.7c0,0.5,0.3,0.9,0.8,1c0.5,0.1,11.2,2.2,17.9,2.2s17.5-2.1,17.9-2.2   c0.5-0.1,0.8-0.5,0.8-1V32.8L33,39.2C32.7,39.3,32.3,39.3,32,39.3z"></path></g></svg>