<svg width="100px" height="100px" enable-background="new 0 0 100 100" fill="#000000" version="1.1" viewBox="0 0 100 100" xml:space="preserve" xmlns="http://www.w3.org/2000/svg"><path d="m39.646 30.975c-0.25575 0-0.51153 0.097469-0.70703 0.29297-4.996 4.996-4.996 13.124 0 18.119l14.078 14.08-5.9258 5.9258c-3.775-0.354-7.356 1.2241-9.666 4.2871-2.918 3.868-2.8319 9.4239 0.20312 13.211 1.936 2.416 4.8041 3.8974 7.8711 4.0664 0.198 0.011 0.39675 0.017578 0.59375 0.017578 2.86 0 5.6213-1.136 7.6523-3.168 2.295-2.295 3.4163-5.4225 3.1133-8.6465l5.9258-5.9258 5.9258 5.9258c-0.302 3.223 0.81633 6.3515 3.1113 8.6465 2.109 2.109 4.8794 3.1641 7.6504 3.1641s5.5414-1.0551 7.6504-3.1641c4.218-4.218 4.218-11.083 0-15.301-2.295-2.295-5.4215-3.4163-8.6445-3.1113l-5.9277-5.9258 14.08-14.08c4.997-4.997 4.996-13.125 0-18.121-0.391-0.391-1.0231-0.391-1.4141 0l-22.432 22.432-22.432-22.432c-0.1955-0.1955-0.45128-0.29297-0.70703-0.29297zm23.186 31c0.688 0 1.25 0.56005 1.25 1.248 0 0.689-0.562 1.248-1.25 1.248s-1.2461-0.55905-1.2461-1.248c0-0.688 0.55809-1.248 1.2461-1.248zm16.707 13.506c1.231 0 2.3898 0.47861 3.2598 1.3496 1.796 1.796 1.796 4.7216 0 6.5176-0.87 0.87-2.0288 1.3496-3.2598 1.3496-1.23 0-2.3878-0.47861-3.2578-1.3496-1.796-1.796-1.796-4.7216 0-6.5176 0.87-0.87 2.0268-1.3496 3.2578-1.3496zm-33.16 0.003906c1.18 0 2.3598 0.4477 3.2578 1.3457 1.796 1.796 1.796 4.7216 0 6.5176s-4.7196 1.797-6.5176 0c-1.796-1.796-1.796-4.7216 0-6.5176 0.898-0.898 2.0798-1.3457 3.2598-1.3457z"/><path d="m56.867 11.082c-0.551 0.029-1.0964 0.16516-1.6094 0.41016-1.026 0.49-1.7997 1.3499-2.1797 2.4219l-2.375 6.7188c-0.783 2.213 0.38075 4.6486 2.5938 5.4316l14.557 5.1484c0.464 0.164 0.94388 0.24609 1.4219 0.24609 0.626 0 1.25-0.13902 1.832-0.41602 1.026-0.49 1.7997-1.3518 2.1797-2.4238l2.375-6.7188c0.379-1.072 0.31812-2.226-0.17188-3.252s-1.3509-1.7997-2.4219-2.1797l-14.559-5.1484c-0.536-0.189-1.0916-0.26728-1.6426-0.23828z"/><path d="m15.986 10c-2.204 0-3.9961 1.7921-3.9961 3.9961v3.2539h-0.86328c-0.552 0-1 0.448-1 1v56.5c-1e-3 0.552 0.44605 1 0.99805 1h0.27539l6.2246 11.354v1.8965c0 0.552 0.448 1 1 1s1-0.448 1-1v-1.9277l6.1035-11.322h0.27148c0.552 0 1-0.448 1-1v-31.678c0.419 2.35 1.4981 4.2941 3.6641 5.3301 0.139 0.066 0.28664 0.097656 0.43164 0.097656 0.373 0 0.73034-0.20936 0.90234-0.56836 0.238-0.499 0.027297-1.096-0.4707-1.334-4.96-2.372-2.048-12.531-0.45898-18.072 0.833-2.906 0.65003-5.0958-0.54297-6.5098-1.101-1.304-2.7084-1.5114-3.5234-1.5254v-2.2402c0-0.552-0.448-1-1-1h-0.86523v-3.2539c0-2.204-1.7921-3.9961-3.9961-3.9961h-5.1543zm11.016 12.488c0.471 0.011 1.4101 0.12341 1.9961 0.81641 0.726 0.86 0.777 2.475 0.125 4.752-0.719 2.509-1.6941 5.9186-2.1211 9.2676v-14.836z"/></svg>